<svg width="25" height="24" viewBox="0 0 25 24" fill="none" xmlns="http://www.w3.org/2000/svg">
<path d="M11.4567 15.17C11.2567 15.17 11.0667 15.09 10.9267 14.95L8.50668 12.53C8.21668 12.24 8.21668 11.76 8.50668 11.47C8.79668 11.18 9.27668 11.18 9.56668 11.47L11.4567 13.36L15.7567 9.06003C16.0467 8.77003 16.5267 8.77003 16.8167 9.06003C17.1067 9.35003 17.1067 9.83003 16.8167 10.12L11.9867 14.95C11.8467 15.09 11.6567 15.17 11.4567 15.17Z" fill="#797979"/>
<path d="M13.6667 22.75C13.0367 22.75 12.4067 22.54 11.9167 22.12L10.3367 20.76C10.1767 20.62 9.77669 20.48 9.56669 20.48H7.84669C6.36669 20.48 5.16669 19.28 5.16669 17.8V16.09C5.16669 15.88 5.02669 15.49 4.88669 15.33L3.53669 13.74C2.71669 12.77 2.71669 11.24 3.53669 10.27L4.88669 8.68C5.02669 8.52 5.16669 8.13 5.16669 7.92V6.2C5.16669 4.72 6.36669 3.52 7.84669 3.52H9.57669C9.78669 3.52 10.1867 3.37 10.3467 3.24L11.9267 1.88C12.9067 1.04 14.4367 1.04 15.4167 1.88L16.9967 3.24C17.1567 3.38 17.5567 3.52 17.7667 3.52H19.4667C20.9467 3.52 22.1467 4.72 22.1467 6.2V7.9C22.1467 8.11 22.2967 8.51 22.4367 8.67L23.7967 10.25C24.6367 11.23 24.6367 12.76 23.7967 13.74L22.4367 15.32C22.2967 15.48 22.1467 15.88 22.1467 16.09V17.79C22.1467 19.27 20.9467 20.47 19.4667 20.47H17.7667C17.5567 20.47 17.1567 20.62 16.9967 20.75L15.4167 22.11C14.9267 22.54 14.2967 22.75 13.6667 22.75ZM7.84669 5.02C7.19669 5.02 6.66669 5.55 6.66669 6.2V7.91C6.66669 8.48 6.39669 9.21 6.02669 9.64L4.67669 11.23C4.32669 11.64 4.32669 12.35 4.67669 12.76L6.02669 14.35C6.39669 14.79 6.66669 15.51 6.66669 16.08V17.79C6.66669 18.44 7.19669 18.97 7.84669 18.97H9.57669C10.1567 18.97 10.8867 19.24 11.3267 19.62L12.9067 20.98C13.3167 21.33 14.0367 21.33 14.4467 20.98L16.0267 19.62C16.4667 19.25 17.1967 18.97 17.7767 18.97H19.4767C20.1267 18.97 20.6567 18.44 20.6567 17.79V16.09C20.6567 15.51 20.9267 14.78 21.3067 14.34L22.6667 12.76C23.0167 12.35 23.0167 11.63 22.6667 11.22L21.3067 9.64C20.9267 9.2 20.6567 8.47 20.6567 7.89V6.2C20.6567 5.55 20.1267 5.02 19.4767 5.02H17.7767C17.1967 5.02 16.4667 4.75 16.0267 4.37L14.4467 3.01C14.0367 2.66 13.3167 2.66 12.9067 3.01L11.3267 4.38C10.8867 4.75 10.1467 5.02 9.57669 5.02H7.84669Z" fill="#797979"/>
</svg>
