<svg width="171" height="216" viewBox="0 0 171 216" fill="none" xmlns="http://www.w3.org/2000/svg">
<g clip-path="url(#clip0_1_1503)">
<path d="M170.38 0.480011H0.97998V214.91H170.38V0.480011Z" fill="white"/>
<path d="M106.16 61.17C97.7899 61.17 89.27 60.83 81.2999 58.61C73.4799 56.44 66.2999 52.23 59.8999 47.36C55.7099 44.19 51.8999 41.66 46.4599 42.04C41.138 42.328 36.0487 44.3153 31.9399 47.71C25.0199 53.77 26.0599 65 28.8299 72.86C32.9899 84.73 45.6499 93 56.4099 98.35C68.84 104.56 82.5 108.17 96.1899 110.24C108.19 112.07 123.61 113.39 134.01 105.56C143.56 98.35 146.18 81.91 143.84 70.81C143.272 67.5309 141.526 64.5721 138.93 62.49C132.22 57.58 122.21 60.86 114.67 61.02C111.87 61.08 109.02 61.15 106.16 61.17Z" fill="#F2F2F2"/>
<path d="M86.0801 129.7C106.354 129.7 122.79 128.675 122.79 127.41C122.79 126.145 106.354 125.12 86.0801 125.12C65.8057 125.12 49.3701 126.145 49.3701 127.41C49.3701 128.675 65.8057 129.7 86.0801 129.7Z" fill="#F2F2F2"/>
<path d="M34.28 39.12L47.28 38.02C48.9011 37.878 50.5218 38.2973 51.8707 39.2075C53.2196 40.1177 54.2149 41.4636 54.69 43.02L67.15 84.72L64.71 89.09C64.0833 90.216 63.7739 91.4909 63.8149 92.7789C63.8558 94.0669 64.2455 95.3196 64.9424 96.4035C65.6394 97.4874 66.6174 98.3619 67.7723 98.9336C68.9271 99.5053 70.2155 99.7529 71.5 99.65L121.4 95.41" stroke="#BABABA" stroke-linecap="round" stroke-linejoin="round"/>
<path d="M56.55 49.35L114.55 44.43C115.121 44.381 115.696 44.4613 116.233 44.665C116.769 44.8686 117.252 45.1903 117.647 45.6062C118.042 46.0221 118.338 46.5216 118.513 47.0675C118.688 47.6135 118.739 48.192 118.66 48.76L114.73 77.13C114.611 77.9812 114.209 78.7675 113.588 79.3624C112.968 79.9573 112.165 80.3263 111.31 80.41L67.1501 84.72L56.55 49.35Z" fill="white" stroke="#BABABA" stroke-linecap="round" stroke-linejoin="round"/>
<path d="M77.0501 109.21C79.6514 109.21 81.7601 107.101 81.7601 104.5C81.7601 101.899 79.6514 99.79 77.0501 99.79C74.4488 99.79 72.3401 101.899 72.3401 104.5C72.3401 107.101 74.4488 109.21 77.0501 109.21Z" fill="white" stroke="#BABABA" stroke-linecap="round" stroke-linejoin="round"/>
<path d="M109.85 106.43C112.451 106.43 114.56 104.321 114.56 101.72C114.56 99.1187 112.451 97.01 109.85 97.01C107.249 97.01 105.14 99.1187 105.14 101.72C105.14 104.321 107.249 106.43 109.85 106.43Z" fill="white" stroke="#BABABA" stroke-linecap="round" stroke-linejoin="round"/>
<path d="M44.5746 36.894L32.3186 37.9339C31.2565 38.0241 30.4686 38.9581 30.5587 40.0202C30.6488 41.0823 31.5829 41.8702 32.6449 41.7801L44.9009 40.7402C45.963 40.6501 46.7509 39.716 46.6608 38.6539C46.5707 37.5918 45.6366 36.8039 44.5746 36.894Z" fill="#D2D2D2"/>
<path d="M80.97 71.26C81.2091 69.4349 82.065 67.7465 83.3957 66.4747C84.7263 65.2029 86.4517 64.4242 88.2857 64.2678C90.1197 64.1113 91.9521 64.5866 93.4789 65.6146C95.0057 66.6427 96.1352 68.1618 96.68 69.92" stroke="#BABABA" stroke-linecap="round" stroke-linejoin="round"/>
<path d="M96.8099 60.47C97.4285 60.47 97.9299 59.9686 97.9299 59.35C97.9299 58.7315 97.4285 58.23 96.8099 58.23C96.1914 58.23 95.6899 58.7315 95.6899 59.35C95.6899 59.9686 96.1914 60.47 96.8099 60.47Z" fill="#BABABA"/>
<path d="M79.0599 61.97C79.6785 61.97 80.1799 61.4686 80.1799 60.85C80.1799 60.2315 79.6785 59.73 79.0599 59.73C78.4414 59.73 77.9399 60.2315 77.9399 60.85C77.9399 61.4686 78.4414 61.97 79.0599 61.97Z" fill="#BABABA"/>
<path d="M47.51 103.11V107.42" stroke="#BABABA" stroke-linecap="round" stroke-linejoin="round"/>
<path d="M45.3601 105.26H49.6601" stroke="#BABABA" stroke-linecap="round" stroke-linejoin="round"/>
<path d="M116.22 22.99V27.29" stroke="#BABABA" stroke-linecap="round" stroke-linejoin="round"/>
<path d="M114.07 25.14H118.37" stroke="#BABABA" stroke-linecap="round" stroke-linejoin="round"/>
<path d="M65.3101 35.84V40.14" stroke="#BABABA" stroke-linecap="round" stroke-linejoin="round"/>
<path d="M63.1499 37.99H67.4599" stroke="#BABABA" stroke-linecap="round" stroke-linejoin="round"/>
<path d="M126.95 51.65C127.513 51.65 127.97 51.1933 127.97 50.63C127.97 50.0667 127.513 49.61 126.95 49.61C126.387 49.61 125.93 50.0667 125.93 50.63C125.93 51.1933 126.387 51.65 126.95 51.65Z" fill="white" stroke="#BABABA" stroke-linecap="round" stroke-linejoin="round"/>
<path d="M88.8301 42.48C89.3713 42.48 89.8101 42.0412 89.8101 41.5C89.8101 40.9587 89.3713 40.52 88.8301 40.52C88.2889 40.52 87.8501 40.9587 87.8501 41.5C87.8501 42.0412 88.2889 42.48 88.8301 42.48Z" fill="#CFCFCF"/>
<path d="M95.4099 113.6C95.9512 113.6 96.3899 113.161 96.3899 112.62C96.3899 112.079 95.9512 111.64 95.4099 111.64C94.8687 111.64 94.4299 112.079 94.4299 112.62C94.4299 113.161 94.8687 113.6 95.4099 113.6Z" fill="#CFCFCF"/>
<path d="M66.9701 161.6V168.83H66.2801C66.1734 168.83 66.0834 168.813 66.0101 168.78C65.9401 168.743 65.8717 168.683 65.8051 168.6L62.0301 163.78C62.0501 164 62.0601 164.203 62.0601 164.39V168.83H60.8751V161.6H61.5801C61.6367 161.6 61.6851 161.603 61.7251 161.61C61.7684 161.613 61.8051 161.623 61.8351 161.64C61.8684 161.653 61.9001 161.675 61.9301 161.705C61.9601 161.732 61.9934 161.768 62.0301 161.815L65.8201 166.655C65.8101 166.538 65.8017 166.423 65.7951 166.31C65.7884 166.197 65.7851 166.092 65.7851 165.995V161.6H66.9701ZM70.4989 163.62C70.8789 163.62 71.2239 163.682 71.5339 163.805C71.8472 163.928 72.1139 164.103 72.3339 164.33C72.5572 164.557 72.7289 164.833 72.8489 165.16C72.9689 165.487 73.0289 165.852 73.0289 166.255C73.0289 166.662 72.9689 167.028 72.8489 167.355C72.7289 167.682 72.5572 167.96 72.3339 168.19C72.1139 168.42 71.8472 168.597 71.5339 168.72C71.2239 168.843 70.8789 168.905 70.4989 168.905C70.1156 168.905 69.7672 168.843 69.4539 168.72C69.1406 168.597 68.8722 168.42 68.6489 168.19C68.4289 167.96 68.2572 167.682 68.1339 167.355C68.0139 167.028 67.9539 166.662 67.9539 166.255C67.9539 165.852 68.0139 165.487 68.1339 165.16C68.2572 164.833 68.4289 164.557 68.6489 164.33C68.8722 164.103 69.1406 163.928 69.4539 163.805C69.7672 163.682 70.1156 163.62 70.4989 163.62ZM70.4989 167.955C70.9256 167.955 71.2406 167.812 71.4439 167.525C71.6506 167.238 71.7539 166.818 71.7539 166.265C71.7539 165.712 71.6506 165.29 71.4439 165C71.2406 164.71 70.9256 164.565 70.4989 164.565C70.0656 164.565 69.7439 164.712 69.5339 165.005C69.3272 165.295 69.2239 165.715 69.2239 166.265C69.2239 166.815 69.3272 167.235 69.5339 167.525C69.7439 167.812 70.0656 167.955 70.4989 167.955ZM78.9477 165.235C79.1944 165.235 79.4094 165.205 79.5927 165.145C79.7761 165.082 79.9277 164.993 80.0477 164.88C80.1711 164.763 80.2627 164.623 80.3227 164.46C80.3827 164.293 80.4127 164.108 80.4127 163.905C80.4127 163.712 80.3827 163.537 80.3227 163.38C80.2627 163.223 80.1727 163.09 80.0527 162.98C79.9327 162.87 79.7811 162.787 79.5977 162.73C79.4144 162.67 79.1977 162.64 78.9477 162.64H77.9427V165.235H78.9477ZM78.9477 161.6C79.4311 161.6 79.8494 161.657 80.2027 161.77C80.5561 161.883 80.8477 162.042 81.0777 162.245C81.3077 162.448 81.4777 162.692 81.5877 162.975C81.7011 163.258 81.7577 163.568 81.7577 163.905C81.7577 164.255 81.6994 164.577 81.5827 164.87C81.4661 165.16 81.2911 165.41 81.0577 165.62C80.8244 165.83 80.5311 165.993 80.1777 166.11C79.8277 166.227 79.4177 166.285 78.9477 166.285H77.9427V168.83H76.5977V161.6H78.9477ZM83.681 164.59C83.841 164.283 84.031 164.043 84.251 163.87C84.471 163.693 84.731 163.605 85.031 163.605C85.2677 163.605 85.4577 163.657 85.601 163.76L85.521 164.685C85.5043 164.745 85.4793 164.788 85.446 164.815C85.416 164.838 85.3743 164.85 85.321 164.85C85.271 164.85 85.196 164.842 85.096 164.825C84.9993 164.808 84.9043 164.8 84.811 164.8C84.6743 164.8 84.5527 164.82 84.446 164.86C84.3393 164.9 84.2427 164.958 84.156 165.035C84.0727 165.108 83.9977 165.198 83.931 165.305C83.8677 165.412 83.8077 165.533 83.751 165.67V168.83H82.516V163.7H83.241C83.3677 163.7 83.456 163.723 83.506 163.77C83.556 163.813 83.5893 163.893 83.606 164.01L83.681 164.59ZM88.37 163.62C88.75 163.62 89.095 163.682 89.405 163.805C89.7183 163.928 89.985 164.103 90.205 164.33C90.4283 164.557 90.6 164.833 90.72 165.16C90.84 165.487 90.9 165.852 90.9 166.255C90.9 166.662 90.84 167.028 90.72 167.355C90.6 167.682 90.4283 167.96 90.205 168.19C89.985 168.42 89.7183 168.597 89.405 168.72C89.095 168.843 88.75 168.905 88.37 168.905C87.9867 168.905 87.6383 168.843 87.325 168.72C87.0117 168.597 86.7433 168.42 86.52 168.19C86.3 167.96 86.1283 167.682 86.005 167.355C85.885 167.028 85.825 166.662 85.825 166.255C85.825 165.852 85.885 165.487 86.005 165.16C86.1283 164.833 86.3 164.557 86.52 164.33C86.7433 164.103 87.0117 163.928 87.325 163.805C87.6383 163.682 87.9867 163.62 88.37 163.62ZM88.37 167.955C88.7967 167.955 89.1117 167.812 89.315 167.525C89.5217 167.238 89.625 166.818 89.625 166.265C89.625 165.712 89.5217 165.29 89.315 165C89.1117 164.71 88.7967 164.565 88.37 164.565C87.9367 164.565 87.615 164.712 87.405 165.005C87.1983 165.295 87.095 165.715 87.095 166.265C87.095 166.815 87.1983 167.235 87.405 167.525C87.615 167.812 87.9367 167.955 88.37 167.955ZM95.0622 165.01C94.9222 164.84 94.7688 164.72 94.6022 164.65C94.4388 164.58 94.2622 164.545 94.0722 164.545C93.8855 164.545 93.7172 164.58 93.5672 164.65C93.4172 164.72 93.2888 164.827 93.1822 164.97C93.0755 165.11 92.9938 165.29 92.9372 165.51C92.8805 165.727 92.8522 165.983 92.8522 166.28C92.8522 166.58 92.8755 166.835 92.9222 167.045C92.9722 167.252 93.0422 167.422 93.1322 167.555C93.2222 167.685 93.3322 167.78 93.4622 167.84C93.5922 167.897 93.7372 167.925 93.8972 167.925C94.1538 167.925 94.3722 167.872 94.5522 167.765C94.7322 167.658 94.9022 167.507 95.0622 167.31V165.01ZM96.2972 161.4V168.83H95.5422C95.3788 168.83 95.2755 168.755 95.2322 168.605L95.1272 168.11C94.9205 168.347 94.6822 168.538 94.4122 168.685C94.1455 168.832 93.8338 168.905 93.4772 168.905C93.1972 168.905 92.9405 168.847 92.7072 168.73C92.4738 168.613 92.2722 168.445 92.1022 168.225C91.9355 168.002 91.8055 167.727 91.7122 167.4C91.6222 167.073 91.5772 166.7 91.5772 166.28C91.5772 165.9 91.6288 165.547 91.7322 165.22C91.8355 164.893 91.9838 164.61 92.1772 164.37C92.3705 164.13 92.6022 163.943 92.8722 163.81C93.1422 163.673 93.4455 163.605 93.7822 163.605C94.0688 163.605 94.3138 163.65 94.5172 163.74C94.7205 163.83 94.9022 163.952 95.0622 164.105V161.4H96.2972ZM101.936 163.7V168.83H101.181C101.018 168.83 100.914 168.755 100.871 168.605L100.786 168.195C100.576 168.408 100.344 168.582 100.091 168.715C99.8377 168.845 99.5393 168.91 99.196 168.91C98.916 168.91 98.6677 168.863 98.451 168.77C98.2377 168.673 98.0577 168.538 97.911 168.365C97.7643 168.192 97.6527 167.987 97.576 167.75C97.5027 167.51 97.466 167.247 97.466 166.96V163.7H98.701V166.96C98.701 167.273 98.7727 167.517 98.916 167.69C99.0627 167.86 99.281 167.945 99.571 167.945C99.7843 167.945 99.9843 167.898 100.171 167.805C100.358 167.708 100.534 167.577 100.701 167.41V163.7H101.936ZM106.836 164.785C106.799 164.832 106.762 164.868 106.726 164.895C106.692 164.922 106.642 164.935 106.576 164.935C106.512 164.935 106.451 164.917 106.391 164.88C106.331 164.84 106.259 164.797 106.176 164.75C106.092 164.7 105.992 164.657 105.876 164.62C105.762 164.58 105.621 164.56 105.451 164.56C105.234 164.56 105.044 164.6 104.881 164.68C104.717 164.757 104.581 164.868 104.471 165.015C104.364 165.162 104.284 165.34 104.231 165.55C104.177 165.757 104.151 165.992 104.151 166.255C104.151 166.528 104.179 166.772 104.236 166.985C104.296 167.198 104.381 167.378 104.491 167.525C104.601 167.668 104.734 167.778 104.891 167.855C105.047 167.928 105.224 167.965 105.421 167.965C105.617 167.965 105.776 167.942 105.896 167.895C106.019 167.845 106.122 167.792 106.206 167.735C106.289 167.675 106.361 167.622 106.421 167.575C106.484 167.525 106.554 167.5 106.631 167.5C106.731 167.5 106.806 167.538 106.856 167.615L107.211 168.065C107.074 168.225 106.926 168.36 106.766 168.47C106.606 168.577 106.439 168.663 106.266 168.73C106.096 168.793 105.919 168.838 105.736 168.865C105.556 168.892 105.376 168.905 105.196 168.905C104.879 168.905 104.581 168.847 104.301 168.73C104.021 168.61 103.776 168.437 103.566 168.21C103.356 167.983 103.189 167.707 103.066 167.38C102.946 167.05 102.886 166.675 102.886 166.255C102.886 165.878 102.939 165.53 103.046 165.21C103.156 164.887 103.316 164.608 103.526 164.375C103.736 164.138 103.996 163.953 104.306 163.82C104.616 163.687 104.972 163.62 105.376 163.62C105.759 163.62 106.094 163.682 106.381 163.805C106.671 163.928 106.931 164.105 107.161 164.335L106.836 164.785ZM109.695 168.91C109.248 168.91 108.905 168.785 108.665 168.535C108.428 168.282 108.31 167.933 108.31 167.49V164.625H107.785C107.718 164.625 107.661 164.603 107.615 164.56C107.568 164.517 107.545 164.452 107.545 164.365V163.875L108.37 163.74L108.63 162.34C108.646 162.273 108.678 162.222 108.725 162.185C108.771 162.148 108.831 162.13 108.905 162.13H109.545V163.745H110.915V164.625H109.545V167.405C109.545 167.565 109.583 167.69 109.66 167.78C109.74 167.87 109.848 167.915 109.985 167.915C110.061 167.915 110.125 167.907 110.175 167.89C110.228 167.87 110.273 167.85 110.31 167.83C110.35 167.81 110.385 167.792 110.415 167.775C110.445 167.755 110.475 167.745 110.505 167.745C110.541 167.745 110.571 167.755 110.595 167.775C110.618 167.792 110.643 167.818 110.67 167.855L111.04 168.455C110.86 168.605 110.653 168.718 110.42 168.795C110.186 168.872 109.945 168.91 109.695 168.91Z" fill="#939090"/>
<path d="M46.1344 180.579V182.504C45.8824 182.686 45.6129 182.822 45.3259 182.913C45.0413 183.002 44.7286 183.046 44.3879 183.046C43.9843 183.046 43.6203 182.984 43.2959 182.861C42.9716 182.735 42.6939 182.56 42.4629 182.336C42.2343 182.109 42.0581 181.839 41.9344 181.524C41.8108 181.209 41.7489 180.862 41.7489 180.484C41.7489 180.101 41.8084 179.753 41.9274 179.438C42.0488 179.123 42.2203 178.853 42.4419 178.629C42.6636 178.403 42.9331 178.228 43.2504 178.104C43.5678 177.98 43.9224 177.919 44.3144 177.919C44.5128 177.919 44.6971 177.934 44.8674 177.964C45.0378 177.992 45.1953 178.034 45.3399 178.09C45.4846 178.144 45.6188 178.21 45.7424 178.29C45.8661 178.367 45.9816 178.454 46.0889 178.552L45.8964 178.86C45.8661 178.907 45.8264 178.937 45.7774 178.951C45.7308 178.963 45.6783 178.951 45.6199 178.916C45.5639 178.883 45.4998 178.844 45.4274 178.797C45.3551 178.75 45.2664 178.706 45.1614 178.664C45.0588 178.62 44.9363 178.582 44.7939 178.552C44.6539 178.522 44.4871 178.507 44.2934 178.507C44.0111 178.507 43.7556 178.553 43.5269 178.647C43.2983 178.738 43.1034 178.869 42.9424 179.042C42.7814 179.212 42.6578 179.42 42.5714 179.665C42.4851 179.908 42.4419 180.181 42.4419 180.484C42.4419 180.799 42.4863 181.081 42.5749 181.331C42.6659 181.578 42.7943 181.79 42.9599 181.965C43.1279 182.137 43.3309 182.269 43.5689 182.36C43.8069 182.451 44.0741 182.497 44.3704 182.497C44.6038 182.497 44.8103 182.471 44.9899 182.42C45.1719 182.366 45.3493 182.292 45.5219 182.199V181.097H44.7414C44.6971 181.097 44.6609 181.084 44.6329 181.058C44.6073 181.032 44.5944 181.001 44.5944 180.964V180.579H46.1344ZM48.4802 179.389C48.7392 179.389 48.9725 179.432 49.1802 179.518C49.3879 179.604 49.5652 179.727 49.7122 179.886C49.8592 180.044 49.9712 180.237 50.0482 180.463C50.1275 180.687 50.1672 180.938 50.1672 181.216C50.1672 181.496 50.1275 181.748 50.0482 181.972C49.9712 182.196 49.8592 182.387 49.7122 182.546C49.5652 182.704 49.3879 182.827 49.1802 182.913C48.9725 182.997 48.7392 183.039 48.4802 183.039C48.2189 183.039 47.9832 182.997 47.7732 182.913C47.5655 182.827 47.3882 182.704 47.2412 182.546C47.0942 182.387 46.981 182.196 46.9017 181.972C46.8247 181.748 46.7862 181.496 46.7862 181.216C46.7862 180.938 46.8247 180.687 46.9017 180.463C46.981 180.237 47.0942 180.044 47.2412 179.886C47.3882 179.727 47.5655 179.604 47.7732 179.518C47.9832 179.432 48.2189 179.389 48.4802 179.389ZM48.4802 182.553C48.8302 182.553 49.0915 182.436 49.2642 182.203C49.4369 181.967 49.5232 181.639 49.5232 181.219C49.5232 180.797 49.4369 180.468 49.2642 180.232C49.0915 179.996 48.8302 179.879 48.4802 179.879C48.3029 179.879 48.1477 179.909 48.0147 179.97C47.884 180.03 47.7744 180.118 47.6857 180.232C47.5994 180.346 47.534 180.488 47.4897 180.656C47.4477 180.821 47.4267 181.009 47.4267 181.219C47.4267 181.639 47.513 181.967 47.6857 182.203C47.8607 182.436 48.1255 182.553 48.4802 182.553ZM52.9864 182.99V179.977L52.5944 179.931C52.543 179.919 52.5022 179.902 52.4719 179.879C52.4415 179.853 52.4264 179.817 52.4264 179.77V179.515H52.9864V179.319C52.9864 179.102 53.0202 178.903 53.0879 178.724C53.1555 178.542 53.257 178.385 53.3924 178.255C53.5277 178.124 53.6957 178.022 53.8964 177.95C54.0994 177.878 54.3339 177.842 54.5999 177.842C54.6885 177.842 54.7795 177.847 54.8729 177.859C54.9662 177.871 55.0467 177.888 55.1144 177.912L55.0899 178.237C55.0875 178.26 55.0782 178.277 55.0619 178.286C55.0479 178.295 55.028 178.301 55.0024 178.304C54.9767 178.306 54.944 178.307 54.9044 178.307C54.867 178.305 54.8239 178.304 54.7749 178.304C54.3595 178.304 54.0585 178.39 53.8719 178.563C53.6852 178.733 53.5919 178.991 53.5919 179.336V179.515H55.7339V182.99H55.1074V179.966H53.6094V182.99H52.9864ZM57.3422 179.959C57.4192 179.873 57.5009 179.795 57.5872 179.725C57.6736 179.655 57.7646 179.595 57.8602 179.546C57.9582 179.495 58.0609 179.456 58.1682 179.431C58.2779 179.403 58.3957 179.389 58.5217 179.389C58.7154 179.389 58.8857 179.421 59.0327 179.487C59.1821 179.55 59.3057 179.641 59.4037 179.76C59.5041 179.876 59.5799 180.017 59.6312 180.183C59.6826 180.349 59.7082 180.532 59.7082 180.733V182.99H59.0817V180.733C59.0817 180.464 59.0199 180.257 58.8962 180.11C58.7749 179.96 58.5894 179.886 58.3397 179.886C58.1554 179.886 57.9827 179.93 57.8217 180.019C57.6631 180.107 57.5161 180.227 57.3807 180.379V182.99H56.7542V179.445H57.1287C57.2174 179.445 57.2722 179.488 57.2932 179.574L57.3422 179.959ZM62.9676 180.288C62.8509 180.132 62.7249 180.023 62.5896 179.963C62.4542 179.9 62.3026 179.868 62.1346 179.868C61.8056 179.868 61.5524 179.986 61.3751 180.222C61.1977 180.457 61.1091 180.793 61.1091 181.23C61.1091 181.461 61.1289 181.659 61.1686 181.825C61.2082 181.988 61.2666 182.123 61.3436 182.231C61.4206 182.336 61.5151 182.413 61.6271 182.462C61.7391 182.511 61.8662 182.535 62.0086 182.535C62.2139 182.535 62.3924 182.488 62.5441 182.395C62.6981 182.302 62.8392 182.17 62.9676 182V180.288ZM63.5906 177.835V182.99H63.2196C63.1309 182.99 63.0749 182.947 63.0516 182.861L62.9956 182.43C62.8439 182.612 62.6712 182.759 62.4776 182.871C62.2839 182.983 62.0599 183.039 61.8056 183.039C61.6026 183.039 61.4182 183.001 61.2526 182.924C61.0869 182.844 60.9457 182.729 60.8291 182.577C60.7124 182.425 60.6226 182.236 60.5596 182.01C60.4966 181.784 60.4651 181.524 60.4651 181.23C60.4651 180.968 60.5001 180.726 60.5701 180.502C60.6401 180.275 60.7404 180.079 60.8711 179.914C61.0017 179.748 61.1616 179.618 61.3506 179.525C61.5419 179.429 61.7566 179.382 61.9946 179.382C62.2116 179.382 62.3971 179.419 62.5511 179.494C62.7074 179.566 62.8462 179.667 62.9676 179.798V177.835H63.5906ZM67.4541 183.046C67.1741 183.046 66.9582 182.968 66.8066 182.812C66.6572 182.655 66.5826 182.43 66.5826 182.136V179.966H66.1556C66.1182 179.966 66.0867 179.956 66.0611 179.935C66.0354 179.911 66.0226 179.876 66.0226 179.83V179.581L66.6036 179.508L66.7471 178.412C66.7541 178.377 66.7692 178.349 66.7926 178.328C66.8182 178.305 66.8509 178.293 66.8906 178.293H67.2056V179.515H68.2311V179.966H67.2056V182.094C67.2056 182.243 67.2417 182.354 67.3141 182.427C67.3864 182.499 67.4797 182.535 67.5941 182.535C67.6594 182.535 67.7154 182.527 67.7621 182.511C67.8111 182.492 67.8531 182.472 67.8881 182.451C67.9231 182.43 67.9522 182.411 67.9756 182.395C68.0012 182.376 68.0234 182.367 68.0421 182.367C68.0747 182.367 68.1039 182.387 68.1296 182.427L68.3116 182.724C68.2042 182.824 68.0747 182.904 67.9231 182.962C67.7714 183.018 67.6151 183.046 67.4541 183.046ZM69.5009 179.917C69.6525 179.756 69.8205 179.628 70.0049 179.532C70.1892 179.436 70.4015 179.389 70.6419 179.389C70.8355 179.389 71.0059 179.421 71.1529 179.487C71.3022 179.55 71.4259 179.641 71.5239 179.76C71.6242 179.876 71.7 180.017 71.7514 180.183C71.8027 180.349 71.8284 180.532 71.8284 180.733V182.99H71.2019V180.733C71.2019 180.464 71.14 180.257 71.0164 180.11C70.895 179.96 70.7095 179.886 70.4599 179.886C70.2755 179.886 70.1029 179.93 69.9419 180.019C69.7832 180.107 69.6362 180.227 69.5009 180.379V182.99H68.8744V177.835H69.5009V179.917ZM75.1507 180.831C75.1507 180.686 75.1297 180.554 75.0877 180.435C75.048 180.314 74.9885 180.21 74.9092 180.124C74.8322 180.035 74.7377 179.967 74.6257 179.921C74.5137 179.872 74.3865 179.847 74.2442 179.847C73.9455 179.847 73.7087 179.935 73.5337 180.11C73.361 180.282 73.2537 180.523 73.2117 180.831H75.1507ZM75.6547 182.493C75.5777 182.586 75.4855 182.668 75.3782 182.738C75.2708 182.806 75.1553 182.862 75.0317 182.906C74.9103 182.95 74.7843 182.983 74.6537 183.004C74.523 183.027 74.3935 183.039 74.2652 183.039C74.0202 183.039 73.7938 182.998 73.5862 182.917C73.3808 182.833 73.2023 182.711 73.0507 182.553C72.9013 182.392 72.7847 182.193 72.7007 181.958C72.6167 181.722 72.5747 181.451 72.5747 181.146C72.5747 180.898 72.612 180.667 72.6867 180.453C72.7637 180.238 72.8733 180.052 73.0157 179.896C73.158 179.737 73.3318 179.614 73.5372 179.525C73.7425 179.434 73.9735 179.389 74.2302 179.389C74.4425 179.389 74.6385 179.425 74.8182 179.497C75.0002 179.567 75.1565 179.67 75.2872 179.805C75.4202 179.938 75.524 180.104 75.5987 180.302C75.6733 180.498 75.7107 180.722 75.7107 180.974C75.7107 181.072 75.7002 181.137 75.6792 181.17C75.6582 181.203 75.6185 181.219 75.5602 181.219H73.1907C73.1977 181.443 73.228 181.638 73.2817 181.804C73.3377 181.969 73.4147 182.108 73.5127 182.22C73.6107 182.33 73.7273 182.413 73.8627 182.469C73.998 182.522 74.1497 182.549 74.3177 182.549C74.474 182.549 74.6082 182.532 74.7202 182.497C74.8345 182.459 74.9325 182.42 75.0142 182.378C75.0958 182.336 75.1635 182.297 75.2172 182.262C75.2732 182.225 75.321 182.206 75.3607 182.206C75.412 182.206 75.4517 182.226 75.4797 182.266L75.6547 182.493ZM78.8934 182.136C79.0078 182.29 79.1326 182.399 79.2679 182.462C79.4033 182.525 79.5549 182.556 79.7229 182.556C80.0543 182.556 80.3086 182.438 80.4859 182.203C80.6633 181.967 80.7519 181.631 80.7519 181.195C80.7519 180.964 80.7309 180.765 80.6889 180.6C80.6493 180.434 80.5909 180.299 80.5139 180.194C80.4369 180.086 80.3424 180.008 80.2304 179.959C80.1184 179.91 79.9913 179.886 79.8489 179.886C79.6459 179.886 79.4674 179.932 79.3134 180.026C79.1618 180.119 79.0218 180.251 78.8934 180.421V182.136ZM78.8619 179.994C79.0113 179.81 79.1839 179.662 79.3799 179.55C79.5759 179.438 79.7999 179.382 80.0519 179.382C80.2573 179.382 80.4428 179.421 80.6084 179.501C80.7741 179.578 80.9153 179.693 81.0319 179.847C81.1486 179.999 81.2384 180.188 81.3014 180.414C81.3644 180.64 81.3959 180.901 81.3959 181.195C81.3959 181.456 81.3609 181.7 81.2909 181.926C81.2209 182.15 81.1194 182.345 80.9864 182.511C80.8558 182.674 80.6948 182.803 80.5034 182.899C80.3144 182.992 80.1009 183.039 79.8629 183.039C79.6459 183.039 79.4593 183.003 79.3029 182.931C79.1489 182.856 79.0124 182.753 78.8934 182.623V184.191H78.2669V179.445H78.6414C78.7301 179.445 78.7849 179.488 78.8059 179.574L78.8619 179.994ZM82.7823 180.155C82.8943 179.912 83.0319 179.723 83.1953 179.588C83.3586 179.45 83.5581 179.382 83.7938 179.382C83.8684 179.382 83.9396 179.39 84.0073 179.406C84.0773 179.422 84.1391 179.448 84.1928 179.483L84.1473 179.949C84.1333 180.007 84.0983 180.036 84.0423 180.036C84.0096 180.036 83.9618 180.029 83.8988 180.015C83.8358 180.001 83.7646 179.994 83.6853 179.994C83.5733 179.994 83.4729 180.01 83.3843 180.043C83.2979 180.076 83.2198 180.125 83.1498 180.19C83.0821 180.253 83.0203 180.332 82.9643 180.428C82.9106 180.521 82.8616 180.629 82.8173 180.75V182.99H82.1908V179.445H82.5478C82.6154 179.445 82.6621 179.457 82.6878 179.483C82.7134 179.509 82.7309 179.553 82.7403 179.616L82.7823 180.155ZM86.0915 179.389C86.3505 179.389 86.5838 179.432 86.7915 179.518C86.9992 179.604 87.1765 179.727 87.3235 179.886C87.4705 180.044 87.5825 180.237 87.6595 180.463C87.7388 180.687 87.7785 180.938 87.7785 181.216C87.7785 181.496 87.7388 181.748 87.6595 181.972C87.5825 182.196 87.4705 182.387 87.3235 182.546C87.1765 182.704 86.9992 182.827 86.7915 182.913C86.5838 182.997 86.3505 183.039 86.0915 183.039C85.8302 183.039 85.5945 182.997 85.3845 182.913C85.1768 182.827 84.9995 182.704 84.8525 182.546C84.7055 182.387 84.5923 182.196 84.513 181.972C84.436 181.748 84.3975 181.496 84.3975 181.216C84.3975 180.938 84.436 180.687 84.513 180.463C84.5923 180.237 84.7055 180.044 84.8525 179.886C84.9995 179.727 85.1768 179.604 85.3845 179.518C85.5945 179.432 85.8302 179.389 86.0915 179.389ZM86.0915 182.553C86.4415 182.553 86.7028 182.436 86.8755 182.203C87.0482 181.967 87.1345 181.639 87.1345 181.219C87.1345 180.797 87.0482 180.468 86.8755 180.232C86.7028 179.996 86.4415 179.879 86.0915 179.879C85.9142 179.879 85.759 179.909 85.626 179.97C85.4953 180.03 85.3857 180.118 85.297 180.232C85.2107 180.346 85.1453 180.488 85.101 180.656C85.059 180.821 85.038 181.009 85.038 181.219C85.038 181.639 85.1243 181.967 85.297 182.203C85.472 182.436 85.7368 182.553 86.0915 182.553ZM90.8787 180.288C90.762 180.132 90.636 180.023 90.5007 179.963C90.3654 179.9 90.2137 179.868 90.0457 179.868C89.7167 179.868 89.4635 179.986 89.2862 180.222C89.1089 180.457 89.0202 180.793 89.0202 181.23C89.0202 181.461 89.04 181.659 89.0797 181.825C89.1194 181.988 89.1777 182.123 89.2547 182.231C89.3317 182.336 89.4262 182.413 89.5382 182.462C89.6502 182.511 89.7774 182.535 89.9197 182.535C90.125 182.535 90.3035 182.488 90.4552 182.395C90.6092 182.302 90.7504 182.17 90.8787 182V180.288ZM91.5017 177.835V182.99H91.1307C91.042 182.99 90.986 182.947 90.9627 182.861L90.9067 182.43C90.755 182.612 90.5824 182.759 90.3887 182.871C90.195 182.983 89.971 183.039 89.7167 183.039C89.5137 183.039 89.3294 183.001 89.1637 182.924C88.998 182.844 88.8569 182.729 88.7402 182.577C88.6235 182.425 88.5337 182.236 88.4707 182.01C88.4077 181.784 88.3762 181.524 88.3762 181.23C88.3762 180.968 88.4112 180.726 88.4812 180.502C88.5512 180.275 88.6515 180.079 88.7822 179.914C88.9129 179.748 89.0727 179.618 89.2617 179.525C89.453 179.429 89.6677 179.382 89.9057 179.382C90.1227 179.382 90.3082 179.419 90.4622 179.494C90.6185 179.566 90.7574 179.667 90.8787 179.798V177.835H91.5017ZM95.4012 179.445V182.99H95.0302C94.9415 182.99 94.8855 182.947 94.8622 182.861L94.8132 182.479C94.6592 182.649 94.4865 182.787 94.2952 182.892C94.1039 182.995 93.8845 183.046 93.6372 183.046C93.4435 183.046 93.272 183.015 93.1227 182.952C92.9757 182.886 92.852 182.795 92.7517 182.679C92.6514 182.562 92.5755 182.421 92.5242 182.255C92.4752 182.089 92.4507 181.906 92.4507 181.706V179.445H93.0737V181.706C93.0737 181.974 93.1344 182.182 93.2557 182.329C93.3794 182.476 93.5672 182.549 93.8192 182.549C94.0035 182.549 94.175 182.506 94.3337 182.42C94.4947 182.331 94.6429 182.21 94.7782 182.056V179.445H95.4012ZM98.8565 180.075C98.8378 180.1 98.8192 180.12 98.8005 180.134C98.7818 180.148 98.7562 180.155 98.7235 180.155C98.6885 180.155 98.65 180.141 98.608 180.113C98.566 180.083 98.5135 180.05 98.4505 180.015C98.3898 179.98 98.314 179.949 98.223 179.921C98.1343 179.89 98.0247 179.875 97.894 179.875C97.719 179.875 97.565 179.907 97.432 179.97C97.299 180.03 97.187 180.119 97.096 180.236C97.0073 180.352 96.9397 180.493 96.893 180.659C96.8487 180.825 96.8265 181.01 96.8265 181.216C96.8265 181.43 96.851 181.622 96.9 181.79C96.949 181.955 97.0178 182.095 97.1065 182.21C97.1975 182.322 97.306 182.408 97.432 182.469C97.5603 182.527 97.7038 182.556 97.8625 182.556C98.0142 182.556 98.139 182.539 98.237 182.504C98.335 182.466 98.4155 182.425 98.4785 182.381C98.5438 182.337 98.5975 182.297 98.6395 182.262C98.6838 182.225 98.727 182.206 98.769 182.206C98.8203 182.206 98.86 182.226 98.888 182.266L99.063 182.493C98.986 182.589 98.8985 182.67 98.8005 182.738C98.7025 182.806 98.5963 182.863 98.482 182.91C98.37 182.954 98.2522 182.987 98.1285 183.008C98.0048 183.029 97.8788 183.039 97.7505 183.039C97.5288 183.039 97.3223 182.998 97.131 182.917C96.942 182.835 96.7775 182.717 96.6375 182.563C96.4975 182.407 96.3878 182.215 96.3085 181.989C96.2292 181.763 96.1895 181.505 96.1895 181.216C96.1895 180.952 96.2257 180.708 96.298 180.484C96.3727 180.26 96.48 180.068 96.62 179.907C96.7623 179.743 96.9362 179.616 97.1415 179.525C97.3492 179.434 97.5872 179.389 97.8555 179.389C98.1052 179.389 98.3245 179.429 98.5135 179.511C98.7048 179.59 98.874 179.704 99.021 179.851L98.8565 180.075ZM100.82 183.046C100.54 183.046 100.324 182.968 100.173 182.812C100.023 182.655 99.9488 182.43 99.9488 182.136V179.966H99.5218C99.4844 179.966 99.4529 179.956 99.4273 179.935C99.4016 179.911 99.3888 179.876 99.3888 179.83V179.581L99.9698 179.508L100.113 178.412C100.12 178.377 100.135 178.349 100.159 178.328C100.184 178.305 100.217 178.293 100.257 178.293H100.572V179.515H101.597V179.966H100.572V182.094C100.572 182.243 100.608 182.354 100.68 182.427C100.753 182.499 100.846 182.535 100.96 182.535C101.026 182.535 101.082 182.527 101.128 182.511C101.177 182.492 101.219 182.472 101.254 182.451C101.289 182.43 101.318 182.411 101.342 182.395C101.367 182.376 101.39 182.367 101.408 182.367C101.441 182.367 101.47 182.387 101.496 182.427L101.678 182.724C101.57 182.824 101.441 182.904 101.289 182.962C101.138 183.018 100.981 183.046 100.82 183.046ZM104.306 180.029C104.278 180.08 104.234 180.106 104.176 180.106C104.141 180.106 104.101 180.093 104.057 180.068C104.013 180.042 103.958 180.014 103.893 179.984C103.83 179.951 103.754 179.922 103.665 179.896C103.576 179.868 103.471 179.854 103.35 179.854C103.245 179.854 103.151 179.868 103.067 179.896C102.983 179.922 102.91 179.958 102.85 180.005C102.791 180.051 102.746 180.106 102.713 180.169C102.683 180.23 102.668 180.296 102.668 180.369C102.668 180.46 102.693 180.535 102.745 180.596C102.798 180.657 102.868 180.709 102.955 180.754C103.041 180.798 103.139 180.838 103.249 180.873C103.358 180.905 103.47 180.941 103.585 180.981C103.701 181.018 103.814 181.06 103.924 181.107C104.034 181.154 104.132 181.212 104.218 181.282C104.304 181.352 104.373 181.438 104.425 181.541C104.478 181.641 104.505 181.763 104.505 181.905C104.505 182.068 104.476 182.22 104.418 182.36C104.359 182.498 104.273 182.618 104.159 182.721C104.044 182.821 103.904 182.9 103.739 182.959C103.573 183.017 103.382 183.046 103.165 183.046C102.917 183.046 102.693 183.006 102.493 182.927C102.292 182.845 102.122 182.742 101.982 182.616L102.129 182.378C102.147 182.347 102.169 182.324 102.195 182.308C102.221 182.291 102.253 182.283 102.293 182.283C102.335 182.283 102.379 182.299 102.426 182.332C102.473 182.365 102.529 182.401 102.594 182.441C102.662 182.48 102.743 182.516 102.839 182.549C102.935 182.582 103.054 182.598 103.196 182.598C103.317 182.598 103.424 182.583 103.515 182.553C103.606 182.52 103.681 182.477 103.742 182.423C103.803 182.369 103.847 182.308 103.875 182.238C103.905 182.168 103.921 182.093 103.921 182.014C103.921 181.916 103.894 181.835 103.84 181.772C103.789 181.707 103.72 181.652 103.634 181.608C103.547 181.561 103.448 181.521 103.336 181.489C103.226 181.454 103.113 181.417 102.997 181.38C102.882 181.343 102.769 181.301 102.657 181.254C102.547 181.205 102.449 181.144 102.363 181.072C102.277 181 102.207 180.911 102.153 180.806C102.102 180.699 102.076 180.569 102.076 180.418C102.076 180.282 102.104 180.153 102.16 180.029C102.216 179.903 102.298 179.793 102.405 179.7C102.512 179.604 102.644 179.529 102.801 179.473C102.957 179.417 103.135 179.389 103.336 179.389C103.569 179.389 103.778 179.426 103.963 179.501C104.149 179.573 104.31 179.673 104.446 179.802L104.306 180.029ZM109.941 179.445L107.964 184.037C107.943 184.083 107.916 184.121 107.883 184.149C107.853 184.177 107.805 184.191 107.74 184.191H107.278L107.925 182.784L106.462 179.445H107.001C107.055 179.445 107.097 179.459 107.127 179.487C107.16 179.512 107.182 179.541 107.194 179.574L108.142 181.807C108.18 181.905 108.211 182.008 108.237 182.115C108.269 182.005 108.304 181.902 108.342 181.804L109.262 179.574C109.276 179.537 109.3 179.506 109.332 179.483C109.367 179.457 109.406 179.445 109.448 179.445H109.941ZM111.89 179.389C112.149 179.389 112.383 179.432 112.59 179.518C112.798 179.604 112.975 179.727 113.122 179.886C113.269 180.044 113.381 180.237 113.458 180.463C113.538 180.687 113.577 180.938 113.577 181.216C113.577 181.496 113.538 181.748 113.458 181.972C113.381 182.196 113.269 182.387 113.122 182.546C112.975 182.704 112.798 182.827 112.59 182.913C112.383 182.997 112.149 183.039 111.89 183.039C111.629 183.039 111.393 182.997 111.183 182.913C110.976 182.827 110.798 182.704 110.651 182.546C110.504 182.387 110.391 182.196 110.312 181.972C110.235 181.748 110.196 181.496 110.196 181.216C110.196 180.938 110.235 180.687 110.312 180.463C110.391 180.237 110.504 180.044 110.651 179.886C110.798 179.727 110.976 179.604 111.183 179.518C111.393 179.432 111.629 179.389 111.89 179.389ZM111.89 182.553C112.24 182.553 112.502 182.436 112.674 182.203C112.847 181.967 112.933 181.639 112.933 181.219C112.933 180.797 112.847 180.468 112.674 180.232C112.502 179.996 112.24 179.879 111.89 179.879C111.713 179.879 111.558 179.909 111.425 179.97C111.294 180.03 111.185 180.118 111.096 180.232C111.01 180.346 110.944 180.488 110.9 180.656C110.858 180.821 110.837 181.009 110.837 181.219C110.837 181.639 110.923 181.967 111.096 182.203C111.271 182.436 111.536 182.553 111.89 182.553ZM117.283 179.445V182.99H116.912C116.823 182.99 116.767 182.947 116.744 182.861L116.695 182.479C116.541 182.649 116.368 182.787 116.177 182.892C115.986 182.995 115.766 183.046 115.519 183.046C115.325 183.046 115.154 183.015 115.005 182.952C114.858 182.886 114.734 182.795 114.634 182.679C114.533 182.562 114.457 182.421 114.406 182.255C114.357 182.089 114.333 181.906 114.333 181.706V179.445H114.956V181.706C114.956 181.974 115.016 182.182 115.138 182.329C115.261 182.476 115.449 182.549 115.701 182.549C115.885 182.549 116.057 182.506 116.216 182.42C116.377 182.331 116.525 182.21 116.66 182.056V179.445H117.283ZM120.706 177.835V182.99H120.083V177.835H120.706ZM122.374 179.445V182.99H121.751V179.445H122.374ZM122.507 178.332C122.507 178.392 122.494 178.449 122.469 178.503C122.445 178.554 122.413 178.601 122.371 178.643C122.331 178.683 122.283 178.714 122.227 178.738C122.173 178.761 122.116 178.773 122.056 178.773C121.995 178.773 121.938 178.761 121.884 178.738C121.833 178.714 121.787 178.683 121.748 178.643C121.708 178.601 121.676 178.554 121.653 178.503C121.63 178.449 121.618 178.392 121.618 178.332C121.618 178.271 121.63 178.214 121.653 178.16C121.676 178.104 121.708 178.056 121.748 178.017C121.787 177.975 121.833 177.942 121.884 177.919C121.938 177.895 121.995 177.884 122.056 177.884C122.116 177.884 122.173 177.895 122.227 177.919C122.283 177.942 122.331 177.975 122.371 178.017C122.413 178.056 122.445 178.104 122.469 178.16C122.494 178.214 122.507 178.271 122.507 178.332ZM124.024 177.835V180.869H124.185C124.232 180.869 124.27 180.863 124.301 180.852C124.333 180.838 124.367 180.811 124.402 180.771L125.522 179.571C125.555 179.531 125.589 179.501 125.624 179.48C125.661 179.456 125.71 179.445 125.771 179.445H126.334L125.029 180.834C124.966 180.913 124.898 180.975 124.826 181.02C124.868 181.048 124.905 181.08 124.938 181.118C124.973 181.153 125.005 181.193 125.036 181.24L126.422 182.99H125.865C125.812 182.99 125.765 182.982 125.725 182.966C125.688 182.947 125.655 182.914 125.627 182.868L124.462 181.415C124.427 181.366 124.392 181.335 124.357 181.321C124.324 181.304 124.273 181.296 124.203 181.296H124.024V182.99H123.398V177.835H124.024ZM129.127 180.831C129.127 180.686 129.106 180.554 129.064 180.435C129.025 180.314 128.965 180.21 128.886 180.124C128.809 180.035 128.714 179.967 128.602 179.921C128.49 179.872 128.363 179.847 128.221 179.847C127.922 179.847 127.685 179.935 127.51 180.11C127.338 180.282 127.23 180.523 127.188 180.831H129.127ZM129.631 182.493C129.554 182.586 129.462 182.668 129.355 182.738C129.247 182.806 129.132 182.862 129.008 182.906C128.887 182.95 128.761 182.983 128.63 183.004C128.5 183.027 128.37 183.039 128.242 183.039C127.997 183.039 127.77 182.998 127.563 182.917C127.357 182.833 127.179 182.711 127.027 182.553C126.878 182.392 126.761 182.193 126.677 181.958C126.593 181.722 126.551 181.451 126.551 181.146C126.551 180.898 126.589 180.667 126.663 180.453C126.74 180.238 126.85 180.052 126.992 179.896C127.135 179.737 127.308 179.614 127.514 179.525C127.719 179.434 127.95 179.389 128.207 179.389C128.419 179.389 128.615 179.425 128.795 179.497C128.977 179.567 129.133 179.67 129.264 179.805C129.397 179.938 129.501 180.104 129.575 180.302C129.65 180.498 129.687 180.722 129.687 180.974C129.687 181.072 129.677 181.137 129.656 181.17C129.635 181.203 129.595 181.219 129.537 181.219H127.167C127.174 181.443 127.205 181.638 127.258 181.804C127.314 181.969 127.391 182.108 127.489 182.22C127.587 182.33 127.704 182.413 127.839 182.469C127.975 182.522 128.126 182.549 128.294 182.549C128.451 182.549 128.585 182.532 128.697 182.497C128.811 182.459 128.909 182.42 128.991 182.378C129.072 182.336 129.14 182.297 129.194 182.262C129.25 182.225 129.298 182.206 129.337 182.206C129.389 182.206 129.428 182.226 129.456 182.266L129.631 182.493ZM130.347 182.605C130.347 182.544 130.358 182.487 130.379 182.434C130.402 182.38 130.433 182.333 130.47 182.294C130.51 182.254 130.556 182.222 130.61 182.199C130.664 182.176 130.721 182.164 130.781 182.164C130.842 182.164 130.899 182.176 130.953 182.199C131.007 182.222 131.053 182.254 131.093 182.294C131.133 182.333 131.164 182.38 131.187 182.434C131.211 182.487 131.222 182.544 131.222 182.605C131.222 182.668 131.211 182.726 131.187 182.78C131.164 182.831 131.133 182.877 131.093 182.917C131.053 182.956 131.007 182.987 130.953 183.008C130.899 183.031 130.842 183.043 130.781 183.043C130.721 183.043 130.664 183.031 130.61 183.008C130.556 182.987 130.51 182.956 130.47 182.917C130.433 182.877 130.402 182.831 130.379 182.78C130.358 182.726 130.347 182.668 130.347 182.605Z" fill="#A0A0A0"/>
</g>
<defs>
<clipPath id="clip0_1_1503">
<rect width="170.35" height="215.38" fill="white" transform="translate(0.5)"/>
</clipPath>
</defs>
</svg>
