<?xml version="1.0" ?><svg style="enable-background:new 0 0 32 32;" version="1.1" viewBox="0 0 32 32" xml:space="preserve" xmlns="http://www.w3.org/2000/svg" xmlns:xlink="http://www.w3.org/1999/xlink"><g id="Guides"/><g id="_x32_0"/><g id="_x31_9"/><g id="_x31_8"/><g id="_x31_7"/><g id="_x31_6"/><g id="_x31_5"/><g id="_x31_4"/><g id="_x31_3"/><g id="_x31_2"/><g id="_x31_1"/><g id="_x31_0"/><g id="_x30_9"/><g id="_x30_8"/><g id="_x30_7"><path d="M16,14c-0.4307,0-0.8125-0.2754-0.9487-0.6836l-1.3535-4.0605l-0.8657,1.2988c-0.2114,0.3174-0.5864,0.4849-0.9648,0.4365   c-0.3784-0.0508-0.6953-0.3125-0.8159-0.6748l-1-3c-0.084-0.252-0.0645-0.5264,0.0542-0.7637l1.5063-3.0132   C12.0874,2.5898,13.042,2,14.1035,2h3.793c1.0615,0,2.0161,0.5898,2.4917,1.5396l1.5063,3.0132   c0.1187,0.2373,0.1382,0.5117,0.0542,0.7637l-1,3c-0.1206,0.3623-0.4375,0.624-0.8159,0.6748   c-0.3833,0.0469-0.7534-0.1191-0.9648-0.4365l-0.8657-1.2988l-1.3535,4.0605C16.8125,13.7246,16.4307,14,16,14z M14,6   c0.0439,0,0.0884,0.0029,0.1328,0.0088c0.3784,0.0508,0.6953,0.3125,0.8159,0.6748L16,9.8379l1.0513-3.1543   c0.1206-0.3623,0.4375-0.624,0.8159-0.6748c0.3765-0.0522,0.7529,0.1191,0.9648,0.4365l0.8657,1.2988l0.2227-0.6675l-1.3213-2.6426   C18.4653,4.1665,18.1958,4,17.8965,4h-3.793c-0.2993,0-0.5688,0.1665-0.7026,0.4341l-1.3213,2.6426l0.2227,0.6675l0.8657-1.2988   C13.355,6.165,13.6685,6,14,6z"/><path d="M16.0298,22c-0.5522,0-1.0049-0.4478-1.0049-1s0.4429-1,0.9951-1h0.0098c0.5527,0,1,0.4478,1,1S16.5825,22,16.0298,22z"/><path d="M16.0298,18c-0.5522,0-1.0049-0.4478-1.0049-1s0.4429-1,0.9951-1h0.0098c0.5527,0,1,0.4478,1,1S16.5825,18,16.0298,18z"/><path d="M16.0298,26c-0.5522,0-1.0049-0.4478-1.0049-1s0.4429-1,0.9951-1h0.0098c0.5527,0,1,0.4478,1,1S16.5825,26,16.0298,26z"/><path d="M24,30H8c-0.2998,0-0.5835-0.1343-0.7734-0.3662c-0.1899-0.2314-0.2661-0.5361-0.207-0.8301l0.563-2.8145   C7.8594,24.603,8,23.1836,8,21.771c0-1.0586-0.0796-2.1284-0.2363-3.1797c-0.2568-1.7178-0.1636-3.3569,0.2759-4.8701   c0.1543-0.5308,0.709-0.8364,1.2393-0.6816c0.5308,0.1543,0.8354,0.709,0.6816,1.2393c-0.3589,1.2349-0.4326,2.5864-0.2188,4.0171   C9.9131,19.4448,10,20.6138,10,21.771c0,1.5439-0.1533,3.0952-0.4565,4.6104L9.2197,28h13.5605l-0.3237-1.6182   C22.1533,24.8662,22,23.3149,22,21.771c0-1.1572,0.0869-2.3262,0.2578-3.4746c0.2144-1.4312,0.1406-2.7827-0.2183-4.0176   c-0.1538-0.5303,0.1509-1.085,0.6816-1.2393c0.5273-0.1543,1.0845,0.1514,1.2393,0.6816c0.4395,1.5132,0.5327,3.1523,0.2754,4.8706   C24.0796,19.6426,24,20.7124,24,21.771c0,1.4126,0.1406,2.832,0.4175,4.2188l0.563,2.814c0.0591,0.2939-0.0171,0.5986-0.207,0.8301   C24.5835,29.8657,24.2998,30,24,30z"/><path d="M29,26h-3c-0.5522,0-1-0.4478-1-1s0.4478-1,1-1h1.8652l-1.7222-13.6089c-0.188-1.1875-1.1299-2.1685-2.3394-2.4106   c-0.0405-0.0078-0.0806-0.0186-0.1201-0.0317l-3-1c-0.5239-0.1748-0.8071-0.7412-0.6323-1.2651s0.7397-0.8081,1.2651-0.6323   l2.9443,0.9814c1.9951,0.4272,3.543,2.0576,3.8623,4.0767l1.8691,14.7651c0.0361,0.2847-0.0522,0.5713-0.2422,0.7866   C29.5605,25.8765,29.2871,26,29,26z"/><path d="M6,26H3c-0.2871,0-0.5605-0.1235-0.75-0.3389c-0.1899-0.2153-0.2783-0.502-0.2422-0.7866l1.8647-14.7344   C4.1963,8.0903,5.7441,6.46,7.7393,6.0327l2.9443-0.9814c0.5269-0.1758,1.0908,0.1084,1.2651,0.6323   c0.1748,0.5239-0.1084,1.0903-0.6323,1.2651l-3,1C8.2769,7.9619,8.2368,7.9727,8.1963,7.9805   c-1.2095,0.2422-2.1514,1.2231-2.3438,2.4414L4.1343,24H6c0.5522,0,1,0.4478,1,1S6.5522,26,6,26z"/></g><g id="_x30_6"/><g id="_x30_5"/><g id="_x30_4"/><g id="_x30_3"/><g id="_x30_2"/><g id="_x30_1"/></svg>